<svg width="832" height="144" viewBox="0 0 832 144" fill="none" xmlns="http://www.w3.org/2000/svg">
<path d="M112.135 45.293H100.881C100.768 45.2915 100.656 45.3124 100.55 45.3546C100.445 45.3967 100.35 45.4593 100.269 45.5387C100.187 45.6182 100.123 45.7129 100.078 45.8175C100.033 45.9222 100.01 46.0346 100.008 46.1485V97.8399C100.01 97.9538 100.033 98.0663 100.078 98.1709C100.123 98.2755 100.187 98.3703 100.269 98.4497C100.35 98.5292 100.445 98.5917 100.55 98.6339C100.656 98.676 100.768 98.6969 100.881 98.6954H112.135C112.248 98.6969 112.361 98.676 112.466 98.6339C112.571 98.5917 112.667 98.5292 112.748 98.4497C112.829 98.3703 112.893 98.2755 112.938 98.1709C112.983 98.0663 113.007 97.9538 113.008 97.8399V46.1485C113.007 46.0346 112.983 45.9222 112.938 45.8175C112.893 45.7129 112.829 45.6182 112.748 45.5387C112.667 45.4593 112.571 45.3967 112.466 45.3546C112.361 45.3124 112.248 45.2915 112.135 45.293Z" fill="#FF6900"/>
<path d="M73.7171 45.293H30.8648C30.7517 45.2914 30.6394 45.3123 30.5343 45.3545C30.4293 45.3966 30.3335 45.4592 30.2524 45.5386C30.1713 45.6181 30.1066 45.7128 30.0619 45.8175C30.0172 45.9221 29.9935 46.0345 29.9919 46.1484V97.8398C29.9935 97.9537 30.0172 98.0662 30.0619 98.1708C30.1066 98.2754 30.1713 98.3702 30.2524 98.4496C30.3335 98.5291 30.4293 98.5917 30.5343 98.6338C30.6394 98.676 30.7517 98.6969 30.8648 98.6953H42.1191C42.2322 98.6969 42.3445 98.676 42.4495 98.6338C42.5546 98.5917 42.6504 98.5291 42.7315 98.4496C42.8125 98.3702 42.8773 98.2754 42.922 98.1708C42.9666 98.0662 42.9904 97.9537 42.9919 97.8398V57.2695C42.9935 57.1556 43.0172 57.0432 43.0619 56.9385C43.1066 56.8339 43.1713 56.7392 43.2524 56.6597C43.3335 56.5803 43.4293 56.5177 43.5343 56.4756C43.6394 56.4334 43.7517 56.4125 43.8648 56.4141H68.1074C74.9158 56.4141 76.8594 61.6758 76.8594 65.0625V97.875C76.861 97.9889 76.8847 98.1013 76.9294 98.206C76.9741 98.3106 77.0388 98.4053 77.1199 98.4848C77.201 98.5642 77.2968 98.6268 77.4018 98.669C77.5069 98.7111 77.6192 98.732 77.7323 98.7305H88.9749C89.088 98.732 89.2003 98.7111 89.3054 98.669C89.4105 98.6268 89.5063 98.5642 89.5873 98.4848C89.6684 98.4053 89.7331 98.3106 89.7778 98.206C89.8225 98.1013 89.8463 97.9889 89.8478 97.875V61.1719C89.9655 59.1094 89.6489 57.0451 88.9189 55.1144C88.1888 53.1837 87.0617 51.4301 85.6115 49.9687C84.0854 48.3652 82.231 47.1154 80.177 46.3059C78.1231 45.4964 75.9187 45.1468 73.7171 45.2812V45.293Z" fill="#FF6900"/>
<path d="M65.838 65.8829H54.0251C53.7956 65.8797 53.5741 65.9677 53.4085 66.1279C53.243 66.288 53.1467 66.5073 53.1406 66.7384V97.8399C53.1421 97.9548 53.1663 98.0683 53.2117 98.1737C53.2571 98.2791 53.3229 98.3744 53.4052 98.4539C53.4875 98.5335 53.5847 98.5959 53.6911 98.6373C53.7975 98.6788 53.9111 98.6985 54.0251 98.6954H65.838C65.9511 98.6969 66.0634 98.6761 66.1685 98.6339C66.2736 98.5917 66.3694 98.5292 66.4504 98.4497C66.5315 98.3703 66.5962 98.2755 66.6409 98.1709C66.6856 98.0663 66.7094 97.9538 66.7109 97.8399V66.797C66.7094 66.6831 66.6856 66.5706 66.6409 66.466C66.5962 66.3613 66.5315 66.2666 66.4504 66.1872C66.3694 66.1077 66.2736 66.0451 66.1685 66.003C66.0634 65.9608 65.9511 65.9399 65.838 65.9415V65.8829Z" fill="#FF6900"/>
<path d="M210.682 25.2727L231.182 59.3636H231.909L252.5 25.2727H271.727L243.045 71.8182L272.182 118.364H252.636L231.909 84.5H231.182L210.455 118.364H191L220.409 71.8182L191.364 25.2727H210.682Z" fill="#1E1E1E"/>
<path d="M301.83 25.2727V118.364H284.966V25.2727H301.83Z" fill="#1E1E1E"/>
<path d="M332.045 118.364H314.045L346.818 25.2727H367.636L400.455 118.364H382.455L357.591 44.3636H356.864L332.045 118.364ZM332.636 81.8636H381.727V95.4091H332.636V81.8636Z" fill="#1E1E1E"/>
<path d="M491.523 71.8182C491.523 81.8485 489.644 90.4394 485.886 97.5909C482.159 104.712 477.068 110.167 470.614 113.955C464.189 117.742 456.902 119.636 448.75 119.636C440.598 119.636 433.295 117.742 426.841 113.955C420.417 110.136 415.326 104.667 411.568 97.5455C407.841 90.3939 405.977 81.8182 405.977 71.8182C405.977 61.7879 407.841 53.2121 411.568 46.0909C415.326 38.9394 420.417 33.4697 426.841 29.6818C433.295 25.8939 440.598 24 448.75 24C456.902 24 464.189 25.8939 470.614 29.6818C477.068 33.4697 482.159 38.9394 485.886 46.0909C489.644 53.2121 491.523 61.7879 491.523 71.8182ZM474.568 71.8182C474.568 64.7576 473.462 58.803 471.25 53.9545C469.068 49.0758 466.038 45.3939 462.159 42.9091C458.28 40.3939 453.811 39.1364 448.75 39.1364C443.689 39.1364 439.22 40.3939 435.341 42.9091C431.462 45.3939 428.417 49.0758 426.205 53.9545C424.023 58.803 422.932 64.7576 422.932 71.8182C422.932 78.8788 424.023 84.8485 426.205 89.7273C428.417 94.5758 431.462 98.2576 435.341 100.773C439.22 103.258 443.689 104.5 448.75 104.5C453.811 104.5 458.28 103.258 462.159 100.773C466.038 98.2576 469.068 94.5758 471.25 89.7273C473.462 84.8485 474.568 78.8788 474.568 71.8182Z" fill="#1E1E1E"/>
<path d="M507.466 25.2727H528.102L555.739 92.7273H556.83L584.466 25.2727H605.102V118.364H588.92V54.4091H588.057L562.33 118.091H550.239L524.511 54.2727H523.648V118.364H507.466V25.2727Z" fill="#1E1E1E"/>
<path d="M640.33 25.2727V118.364H623.466V25.2727H640.33Z" fill="#1E1E1E"/>
</svg>
