<svg width="832" height="144" viewBox="0 0 832 144" fill="none" xmlns="http://www.w3.org/2000/svg">
<g clip-path="url(#clip0_1_32)">
<mask id="mask0_1_32" style="mask-type:luminance" maskUnits="userSpaceOnUse" x="53" y="17" width="726" height="111">
<path d="M779 17H53V128H779V17Z" fill="white"/>
</mask>
<g mask="url(#mask0_1_32)">
<path d="M274.35 69.367C274.35 69.367 263.445 70.1262 263.445 82.0069V125.594H233.659V47.3246H261.253L262.026 55.8194C262.026 55.8194 272.342 44.8164 288.503 44.8164C304.649 44.8164 316.22 58.0202 316.353 76.1589V125.609H285.123V78.5647C285.123 78.5647 285.445 69.367 274.35 69.367Z" fill="#1E1E1E"/>
<path d="M117.992 17.8282C112.255 16.6842 100.981 17.0586 100.981 17.0586H53V125.583H86.0543V92.4348H107.097L107.573 92.4912C112.352 92.4912 118.284 91.5882 118.284 91.5882C122.366 91.0547 125.906 89.5622 128.949 88.1054C148.029 78.9743 148.188 54.7722 148.188 54.7722C148.188 21.7012 117.992 17.8282 117.992 17.8282ZM105.371 66.0627L86.0543 66.068V43.5638H105.371C105.371 43.5638 116.558 43.4715 116.558 54.5825C116.558 65.6882 105.371 66.0627 105.371 66.0627Z" fill="#1E1E1E"/>
<path d="M404.647 99.5618C404.647 130.576 444.862 127.945 444.862 127.945C485.958 127.945 483.725 99.9673 483.725 99.9673C483.725 84.8192 470.11 78.9559 462.022 76.8732C453.8 74.7802 446.624 73.4311 440.513 72.3797C434.392 71.328 434.541 67.8345 434.541 67.8345C434.541 62.8128 443.049 62.3407 443.049 62.3407C454.046 62.3407 453.38 70.0353 453.38 70.0353H480.677C480.677 43.0376 443.049 45.5821 443.049 45.5821C443.049 45.5821 405.205 44.438 405.205 71.328C405.205 92.1033 432.241 94.6835 432.241 94.6835C438.848 95.5505 448.693 97.6485 448.693 97.6485C454.512 99.4798 453.913 103.779 453.913 103.779C453.913 110.304 445.057 110.432 445.057 110.432C431.006 110.432 432.251 99.5618 432.251 99.5618H404.647Z" fill="#1E1E1E"/>
<path d="M226.346 100.715V74.9536C226.285 44.2267 188.528 45.4934 188.528 45.4934C143.227 45.4934 150.178 74.2507 150.178 74.2507L176.47 74.7996C176.47 72.4194 177.341 64.4324 187.57 64.4324C197.795 64.4324 197.364 71.3321 197.364 71.3321C197.364 71.3267 197.41 75.3484 193.876 76.5898C190.336 77.8466 178.391 79.9857 178.391 79.9857L172.28 81.1297C154.639 84.7256 146.182 92.7689 146.182 104.829C146.182 116.889 154.88 127.8 172.178 127.8C189.481 127.8 197.052 117.966 197.052 117.966C197.994 124.286 199.992 125.61 199.992 125.61H230.152C225.942 123.594 226.346 100.715 226.346 100.715ZM182.981 110.097C177.531 110.097 173.802 107.891 173.802 102.921C173.802 97.9347 181.168 96.4061 181.168 96.4061C190.531 94.2104 197.554 90.902 197.554 90.902C200.847 110.451 182.981 110.097 182.981 110.097Z" fill="#1E1E1E"/>
<path d="M399.858 100.715V74.9536C399.781 44.2267 362.029 45.4934 362.029 45.4934C316.723 45.4934 323.684 74.2507 323.684 74.2507L349.982 74.7996C349.982 72.4194 350.848 64.4324 361.072 64.4324C371.301 64.4324 370.871 71.3321 370.871 71.3321C370.871 71.3267 370.912 75.3484 367.382 76.5898C363.848 77.8466 351.898 79.9857 351.898 79.9857L345.787 81.1297C328.145 84.7256 319.694 92.7689 319.694 104.829C319.694 116.889 328.391 127.8 345.689 127.8C362.992 127.8 370.543 117.966 370.543 117.966C371.496 124.286 373.504 125.61 373.504 125.61H403.653C399.448 123.594 399.858 100.715 399.858 100.715ZM356.492 110.097C351.042 110.097 347.313 107.891 347.313 102.921C347.313 97.9347 354.679 96.4061 354.679 96.4061C364.037 94.2104 371.06 90.902 371.06 90.902C374.349 110.451 356.492 110.097 356.492 110.097Z" fill="#1E1E1E"/>
<path d="M557.344 54.8552C555.572 53.4394 553.431 52.188 551.367 50.9055C551.367 50.9055 548.524 49.4641 544.067 48.0739C540.21 46.8785 535.129 45.7348 529.587 45.5911L527.579 45.5654C521.99 45.6938 516.837 46.8582 512.949 48.0483C508.472 49.4281 505.655 50.8745 505.655 50.8745C503.56 52.157 501.429 53.4087 499.662 54.8349C486.17 65.6995 485.227 81.9606 485.207 85.8543V87.9266C485.294 92.3381 486.533 108.05 499.662 118.628C501.429 120.049 503.56 121.306 505.655 122.593C505.655 122.593 508.472 124.024 512.949 125.404C516.837 126.605 521.99 127.779 527.579 127.902L529.587 127.867C535.129 127.728 540.21 126.569 544.067 125.389C548.524 124.004 551.367 122.568 551.367 122.568C553.431 121.27 555.572 120.033 557.344 118.592C570.55 107.968 571.733 92.1534 571.794 87.8393L571.799 85.8849C571.779 81.9863 570.826 65.7148 557.344 54.8552ZM541.578 88.0803C541.383 105.275 533.505 108.322 530.012 108.769C528.05 109.03 527.102 108.825 527.102 108.825C523.916 108.507 515.567 106.029 515.152 88.7472V86.3107C515.526 68.8852 523.911 66.4024 527.102 66.0843C527.102 66.0843 528.05 65.8739 530.012 66.146C533.505 66.5971 541.393 69.6342 541.578 86.8749V88.0803Z" fill="#1E1E1E"/>
<path d="M616.512 69.367C616.512 69.367 605.612 70.1262 605.612 82.0069V125.594H575.825V47.3246H603.43L604.198 55.8194C604.198 55.8194 614.509 44.8164 630.655 44.8164C646.81 44.8164 658.377 58.0202 658.52 76.1589V125.609H627.274V78.5647C627.274 78.5647 627.602 69.367 616.512 69.367Z" fill="#1E1E1E"/>
<path d="M693.215 47.303H663.971V125.608H693.215V47.303Z" fill="#1E1E1E"/>
<path d="M693.215 17.0532H663.971V36.4897H693.215V17.0532Z" fill="#1E1E1E"/>
<path d="M776.331 76.7811H751.007C751.007 76.7811 750.141 67.2093 740.004 67.2093C740.004 67.2093 726.051 66.0652 726.051 86.9329C726.051 107.796 740.562 106.657 740.562 106.657C740.562 106.657 752.036 107.421 752.036 93.0529H779L778.985 94.294C778.759 100.506 775.66 127.802 738.739 127.802C738.739 127.802 713.773 130.248 700.762 104.015C700.762 104.015 697.422 95.5511 697.422 85.394C697.422 75.263 701.192 48.9885 737.899 45.7261L740.096 45.6951C777.294 46.4596 778.042 76.7811 778.042 76.7811H776.331Z" fill="#1E1E1E"/>
</g>
</g>
<defs>
<clipPath id="clip0_1_32">
<rect width="832" height="144" fill="white"/>
</clipPath>
</defs>
</svg>
