<svg width="832" height="144" viewBox="0 0 832 144" fill="none" xmlns="http://www.w3.org/2000/svg">
<g clip-path="url(#clip0_1_9)">
<mask id="mask0_1_9" style="mask-type:luminance" maskUnits="userSpaceOnUse" x="0" y="0" width="832" height="144">
<path d="M832 0H0V144H832V0Z" fill="white"/>
</mask>
<g mask="url(#mask0_1_9)">
<mask id="mask1_1_9" style="mask-type:luminance" maskUnits="userSpaceOnUse" x="-1" y="0" width="504" height="144">
<path d="M503 0H-1V144H503V0Z" fill="white"/>
</mask>
<g mask="url(#mask1_1_9)">
<path d="M144.68 144.574H-0.748047V0H144.68V144.574ZM56.8145 63.2949C53.1566 63.2949 49.2723 64.5615 47.0791 66.5557C45.386 68.0957 44.4228 70.2791 44.4287 72.5664C44.4031 74.8636 45.3683 77.0626 47.0791 78.5986C49.4416 80.7226 52.9873 81.8633 56.8145 81.8633C60.6474 81.8632 64.2698 80.7364 66.5752 78.5986C68.2329 77.0292 69.1776 74.8499 69.1895 72.5664C69.2112 70.283 68.2624 68.0996 66.5752 66.5596C64.1006 64.3156 60.86 63.2949 56.8145 63.2949ZM28.874 63.2949C26.8284 63.2949 24.5048 63.6804 22.542 64.5615C20.7092 65.3797 19.2168 66.6959 19.2168 68.875C19.215 70.0156 19.6481 71.1154 20.4316 71.9473C20.9613 72.437 21.8164 73.2662 24.0488 73.7559C25.047 73.9664 27.1807 74.307 29.3066 74.5312C31.4309 74.7535 33.4924 74.9525 34.335 75.1787C35.0062 75.3498 36.1365 75.5814 36.1367 76.8477C36.1367 78.1124 34.947 78.4926 34.7402 78.5752C34.5321 78.6585 33.1066 79.3125 30.5449 79.3125C28.8481 79.2653 27.165 78.9762 25.5488 78.4531C24.594 78.1109 23.5914 77.6622 22.6562 76.5195C22.2783 75.9826 22.0695 75.3453 22.0537 74.6885H19.7324V81.1865H22.3115V80.3076C22.3096 80.1739 22.3829 80.0522 22.4971 79.9873C22.6132 79.9204 22.7549 79.9224 22.8691 79.9912C24.0838 80.5203 25.3481 80.9267 26.6436 81.21C27.9978 81.4931 28.8738 81.6982 30.5566 81.6982C32.3344 81.7316 34.1067 81.4822 35.8057 80.957C36.9317 80.6484 37.9907 80.1269 38.9219 79.4189C39.983 78.6047 40.6016 77.3374 40.5918 75.998C40.6015 74.7453 40.1172 73.5374 39.2432 72.6348C38.7569 72.1648 38.1952 71.7792 37.5791 71.498C36.9178 71.1992 36.233 70.9611 35.5283 70.7842C34.1897 70.4558 31.1853 70.0469 29.748 69.9033C28.24 69.7479 25.6256 69.5295 24.5801 69.207C24.2651 69.1086 23.6192 68.802 23.6191 68.0527C23.6191 67.5197 23.9143 67.0669 24.4951 66.7031C25.4223 66.1229 27.2931 65.7617 29.2441 65.7617C31.13 65.7401 33.002 66.1055 34.7422 66.835C35.2108 67.0396 35.6502 67.3016 36.0518 67.6162C36.7054 68.1748 37.1587 68.9317 37.3418 69.7734H39.4238V64.1172H37.1035V64.7725C37.1032 64.9848 36.8918 65.2612 36.4688 65.0312C35.4229 64.4863 32.48 63.3108 28.874 63.2949ZM71.7295 64.333V66.3965H73.5371C74.8421 66.3966 74.9307 67.1226 74.9307 67.7559V77.4121C74.9307 77.9902 74.9642 78.7829 74.1318 78.7832H71.9023V80.8467H81.4199V78.7832H79.0986C78.1715 78.7832 78.13 78.3606 78.1182 77.46V69.1855L91.1904 80.8467H94.5137L94.3389 67.6768C94.3567 66.7153 94.4154 66.3946 95.4111 66.3945H97.4941V64.333H87.7861V66.3945H89.917C90.8972 66.3946 91.0605 66.7722 91.0742 67.6768L91.1904 74.5684L79.8428 64.333H71.7295ZM99.4873 64.333V66.3965H101.503C102.383 66.3965 102.962 66.9516 103.291 67.3115C103.557 67.6098 109.358 74.1853 109.498 74.3584C109.638 74.5313 109.638 74.5334 109.638 74.6436V77.9023C109.636 78.0518 109.622 78.2012 109.593 78.3467C109.51 78.5395 109.345 78.6851 109.146 78.7441C108.955 78.7677 108.764 78.7793 108.571 78.7793L106.553 78.7773V80.8408H117.871V78.7773H115.741C115.55 78.7793 115.361 78.7678 115.172 78.7422C114.971 78.6832 114.808 78.5375 114.725 78.3447C114.696 78.1993 114.68 78.0497 114.68 77.9004V74.6436C114.666 74.5355 114.694 74.4273 114.755 74.3389L121.035 67.1777C121.61 66.5365 121.911 66.3965 122.667 66.3965H124.75V64.333H115.422V66.3926H116.83C116.985 66.3828 117.129 66.4659 117.202 66.6016C117.275 66.7372 117.261 66.9046 117.168 67.0264C117.124 67.0852 113.262 71.6248 113.215 71.668C113.166 71.7129 113.134 71.7013 113.099 71.6543C113.063 71.6054 109.278 67.0784 109.234 67.0264C108.964 66.696 109.175 66.3926 109.492 66.3926H110.864V64.333H99.4873ZM56.8145 65.71C58.8144 65.71 60.7417 66.4278 62.0391 67.7041C63.2952 68.9412 63.9531 70.6882 63.9531 72.5586C63.9531 74.5154 63.3542 76.1023 62.0391 77.4102C60.726 78.718 58.8422 79.4189 56.8145 79.4189C54.8004 79.4189 52.8784 78.7044 51.5791 77.4102C50.3252 76.1102 49.6423 74.3639 49.6797 72.5586C49.6797 70.698 50.3289 68.9431 51.5791 67.7041C52.8784 66.4217 54.8142 65.71 56.8145 65.71Z" fill="black"/>
</g>
<path d="M284.21 56.5C283.786 52.5303 281.998 49.4394 278.847 47.2273C275.725 45.0151 271.665 43.9091 266.665 43.9091C263.15 43.9091 260.134 44.4394 257.619 45.5C255.104 46.5606 253.18 48 251.847 49.8182C250.513 51.6364 249.831 53.7121 249.801 56.0455C249.801 57.9848 250.241 59.6667 251.119 61.0909C252.028 62.5152 253.256 63.7273 254.801 64.7273C256.347 65.697 258.059 66.5151 259.938 67.1818C261.816 67.8485 263.71 68.4091 265.619 68.8636L274.347 71.0455C277.862 71.8636 281.241 72.9697 284.483 74.3636C287.756 75.7576 290.68 77.5152 293.256 79.6364C295.862 81.7576 297.922 84.3182 299.438 87.3182C300.953 90.3182 301.71 93.8333 301.71 97.8636C301.71 103.318 300.316 108.121 297.528 112.273C294.741 116.394 290.71 119.621 285.438 121.955C280.195 124.258 273.847 125.409 266.392 125.409C259.15 125.409 252.862 124.288 247.528 122.045C242.225 119.803 238.074 116.53 235.074 112.227C232.104 107.924 230.498 102.682 230.256 96.5H246.847C247.089 99.7424 248.089 102.439 249.847 104.591C251.604 106.742 253.892 108.348 256.71 109.409C259.559 110.47 262.741 111 266.256 111C269.922 111 273.134 110.455 275.892 109.364C278.68 108.242 280.862 106.697 282.438 104.727C284.013 102.727 284.816 100.394 284.847 97.7273C284.816 95.303 284.104 93.303 282.71 91.7273C281.316 90.1212 279.362 88.7879 276.847 87.7273C274.362 86.6364 271.453 85.6667 268.119 84.8182L257.528 82.0909C249.862 80.1212 243.801 77.1364 239.347 73.1364C234.922 69.1061 232.71 63.7576 232.71 57.0909C232.71 51.6061 234.195 46.803 237.165 42.6818C240.165 38.5606 244.241 35.3636 249.392 33.0909C254.544 30.7879 260.377 29.6364 266.892 29.6364C273.498 29.6364 279.286 30.7879 284.256 33.0909C289.256 35.3636 293.18 38.5303 296.028 42.5909C298.877 46.6212 300.347 51.2576 300.438 56.5H284.21ZM396.426 62.3182H379.426C378.941 59.5303 378.047 57.0606 376.744 54.9091C375.441 52.7273 373.82 50.8788 371.881 49.3636C369.941 47.8485 367.729 46.7121 365.244 45.9545C362.79 45.1667 360.138 44.7727 357.29 44.7727C352.229 44.7727 347.744 46.0455 343.835 48.5909C339.926 51.1061 336.866 54.803 334.653 59.6818C332.441 64.5303 331.335 70.4545 331.335 77.4545C331.335 84.5758 332.441 90.5758 334.653 95.4545C336.896 100.303 339.956 103.97 343.835 106.455C347.744 108.909 352.214 110.136 357.244 110.136C360.032 110.136 362.638 109.773 365.062 109.045C367.517 108.288 369.714 107.182 371.653 105.727C373.623 104.273 375.275 102.485 376.608 100.364C377.972 98.2424 378.911 95.8182 379.426 93.0909L396.426 93.1818C395.79 97.6061 394.411 101.758 392.29 105.636C390.199 109.515 387.456 112.939 384.062 115.909C380.669 118.848 376.699 121.152 372.153 122.818C367.608 124.455 362.563 125.273 357.017 125.273C348.835 125.273 341.532 123.379 335.108 119.591C328.684 115.803 323.623 110.333 319.926 103.182C316.229 96.0303 314.381 87.4545 314.381 77.4545C314.381 67.4242 316.244 58.8485 319.972 51.7273C323.699 44.5758 328.775 39.1061 335.199 35.3182C341.623 31.5303 348.896 29.6364 357.017 29.6364C362.199 29.6364 367.017 30.3636 371.472 31.8182C375.926 33.2727 379.896 35.4091 383.381 38.2273C386.866 41.0151 389.729 44.4394 391.972 48.5C394.244 52.5303 395.729 57.1364 396.426 62.3182ZM428.733 30.9091V124H411.869V30.9091H428.733ZM488.585 70.6818V84.2273H446.676V70.6818H488.585ZM506.619 124V30.9091H566.256V45.0455H523.483V70.3182H562.165V84.4545H523.483V124H506.619ZM598.483 30.9091V124H581.619V30.9091H598.483Z" fill="#1E1E1E"/>
</g>
</g>
<defs>
<clipPath id="clip0_1_9">
<rect width="832" height="144" fill="white"/>
</clipPath>
</defs>
</svg>
