<svg width="832" height="144" viewBox="0 0 832 144" fill="none" xmlns="http://www.w3.org/2000/svg">
<g clip-path="url(#clip0_1_2)">
<mask id="mask0_1_2" style="mask-type:luminance" maskUnits="userSpaceOnUse" x="123" y="21" width="586" height="102">
<path d="M709 21H123V123H709V21Z" fill="white"/>
</mask>
<g mask="url(#mask0_1_2)">
<path d="M331.792 123C310.52 123 290.83 116.741 277.704 105.092C268.211 96.6307 262.82 84.5761 262.995 71.942C262.937 59.3659 268.328 47.3693 277.704 38.908C289.893 27.9545 311.458 21 331.792 21C354.236 21 372.226 26.6216 385.997 38.908C395.373 47.3693 400.647 59.3659 400.53 71.8841C400.471 84.4023 395.197 96.3989 385.997 105.034C373.163 116.799 353.064 123 331.792 123V109.555C343.043 109.555 353.532 105.73 360.799 98.5432C368.065 91.3568 371.405 82.6636 371.405 71.8841C371.405 61.6261 367.772 52.0057 360.799 45.225C353.591 38.2125 342.867 34.2716 331.792 34.2716C320.716 34.2716 309.934 38.2125 302.726 45.225C295.753 52.0057 292.178 61.6841 292.178 71.8841C291.944 81.7943 295.753 91.4148 302.726 98.5432C309.934 105.672 320.599 109.555 331.792 109.555V123ZM176.619 21C165.251 21 152.359 23.0864 141.459 27.9545C131.263 32.475 123 39.6614 123 51.658C123 57.917 125.403 63.9443 129.739 68.5227C132.669 71.1886 137.416 75.767 149.839 78.4909C155.406 79.65 167.243 81.5045 179.022 82.7216C190.8 83.9386 202.286 85.0398 206.974 86.2568C210.724 87.1841 216.994 88.4591 216.994 95.4136C216.994 102.368 210.373 104.455 209.259 104.918C208.146 105.382 200.176 108.975 185.936 108.975C176.502 108.743 167.184 107.12 158.219 104.281C152.886 102.426 147.319 99.9341 142.162 93.675C140.053 90.7193 138.881 87.242 138.822 83.5909H125.93V119.291H140.228V114.481C140.228 113.38 141.107 112.452 142.279 112.452C142.631 112.452 143.041 112.568 143.334 112.742C150.073 115.64 157.105 117.9 164.313 119.465C171.814 121.03 176.678 122.131 186.054 122.131C195.898 122.305 205.743 120.972 215.178 118.074C221.448 116.393 227.308 113.495 232.465 109.612C238.383 105.15 241.782 98.1955 241.724 90.8352C241.782 83.9386 239.087 77.3318 234.223 72.3477C231.527 69.7398 228.421 67.6534 224.964 66.0886C221.272 64.4659 217.463 63.133 213.596 62.1477C206.153 60.3511 189.452 58.0909 181.483 57.3375C173.103 56.4682 158.57 55.3091 152.769 53.5125C151.011 52.9909 147.436 51.3102 147.436 47.1955C147.436 44.2398 149.077 41.8057 152.3 39.7773C157.457 36.5898 167.829 34.6193 178.67 34.6193C189.159 34.5034 199.532 36.4739 209.201 40.5307C211.779 41.6318 214.24 43.0807 216.467 44.8193C220.1 47.8909 222.62 52.0636 223.616 56.642H235.16V25.5205H222.268V29.1136C222.268 30.2727 221.096 31.7795 218.752 30.5625C213.01 27.5489 196.66 21.058 176.619 21ZM459.657 26.6795L522.652 82.8955L522.007 45.0511C521.949 40.067 521.011 37.9807 515.561 37.9807H503.724V26.6795H557.636V37.9807H546.092C540.584 37.9807 540.232 39.7193 540.115 45.0511L541.111 117.378H522.652L450.047 53.3386V98.775C450.105 103.701 450.34 106.077 455.496 106.077H468.388V117.378H415.531V106.077H427.896C432.525 106.077 432.349 101.731 432.349 98.5432V45.5148C432.349 42.0375 431.881 38.0386 424.614 38.0386H414.594V26.6795H459.657ZM619.166 106.077C620.221 106.077 621.276 106.019 622.331 105.903C623.444 105.556 624.323 104.802 624.792 103.701C624.968 102.89 625.026 102.078 625.026 101.267V83.3591C625.026 82.7795 625.026 82.7216 624.264 81.7943C623.503 80.867 591.273 44.7034 589.808 43.0807C587.991 41.1102 584.768 38.0386 579.904 38.0386H568.712V26.6795H631.882V37.9807H624.264C622.506 37.9807 621.334 39.6614 622.858 41.458C622.858 41.458 644.13 66.6102 644.306 66.9C644.481 67.1898 644.657 67.2477 644.95 66.958C645.243 66.6682 666.749 41.6898 666.925 41.458C667.687 40.5307 667.453 39.1398 666.515 38.4443C666.105 38.1545 665.577 37.9807 665.05 37.9807H657.256V26.6795H709.059V38.0386H697.514C693.295 38.0386 691.654 38.792 688.431 42.3273L653.564 81.6784C653.213 82.142 653.096 82.7795 653.154 83.3591V101.267C653.154 102.078 653.271 102.89 653.389 103.701C653.857 104.744 654.736 105.556 655.85 105.903C656.905 106.019 657.959 106.135 659.014 106.077H670.851V117.436H607.974V106.077H619.166Z" fill="#1E1E1E"/>
</g>
</g>
<defs>
<clipPath id="clip0_1_2">
<rect width="832" height="144" fill="white"/>
</clipPath>
</defs>
</svg>
