<svg width="32" height="32" viewBox="0 0 32 32" fill="none" xmlns="http://www.w3.org/2000/svg">
<g clip-path="url(#clip0_29_42)">
<path d="M0.414245 15.5858L16 0L31.5858 15.5858L16 31.1715L0.414245 15.5858Z" fill="#8A38F5"/>
<path d="M16.2409 29.8794C14.2558 29.8794 12.4629 29.532 10.8624 28.8372C9.27429 28.13 7.96533 27.125 6.93553 25.8222C5.91813 24.5071 5.27296 22.9438 5 21.1323L10.2855 20.3507C10.6577 21.8892 11.4269 23.074 12.5932 23.9053C13.7595 24.7366 15.0871 25.1523 16.5759 25.1523C17.4072 25.1523 18.2137 25.022 18.9953 24.7614C19.777 24.5009 20.416 24.1163 20.9123 23.6076C21.421 23.0989 21.6753 22.4723 21.6753 21.7279C21.6753 21.4549 21.6319 21.1944 21.545 20.9462C21.4706 20.6857 21.3403 20.4437 21.1542 20.2204C20.9681 19.9971 20.7013 19.7861 20.3539 19.5876C20.0189 19.3891 19.5909 19.2092 19.0698 19.0479L12.1093 17.0007C11.5882 16.8518 10.9803 16.6409 10.2855 16.3679C9.60308 16.095 8.93929 15.7042 8.29412 15.1955C7.64894 14.6868 7.10923 14.0168 6.67498 13.1855C6.25313 12.3418 6.04221 11.281 6.04221 10.003C6.04221 8.204 6.49507 6.70893 7.4008 5.51783C8.30652 4.32674 9.51623 3.43962 11.0299 2.85649C12.5436 2.27335 14.2186 1.98798 16.0548 2.00039C17.9035 2.0252 19.5537 2.34159 21.0053 2.94954C22.457 3.55749 23.6729 4.44461 24.653 5.61089C25.6332 6.76476 26.3404 8.17918 26.7747 9.85416L21.3031 10.7847C21.1046 9.91619 20.7386 9.18417 20.205 8.58862C19.6715 7.99307 19.0326 7.54021 18.2881 7.23003C17.5561 6.91985 16.7869 6.75235 15.9804 6.72754C15.1863 6.70272 14.4357 6.81439 13.7285 7.06253C13.0337 7.29827 12.4629 7.64567 12.0163 8.10474C11.582 8.56381 11.3649 9.10972 11.3649 9.74249C11.3649 10.3256 11.5448 10.8033 11.9046 11.1755C12.2644 11.5353 12.7173 11.8269 13.2632 12.0502C13.8091 12.2736 14.3675 12.4597 14.9382 12.6086L19.5909 13.8741C20.2857 14.0602 21.0549 14.3083 21.8986 14.6185C22.7423 14.9163 23.5488 15.3381 24.318 15.8841C25.0997 16.4176 25.7387 17.1248 26.235 18.0057C26.7437 18.8866 26.998 20.0033 26.998 21.3556C26.998 22.7949 26.694 24.0542 26.0861 25.1336C25.4905 26.2007 24.6841 27.0878 23.6667 27.795C22.6493 28.4898 21.4954 29.0109 20.205 29.3583C18.9271 29.7057 17.6057 29.8794 16.2409 29.8794Z" fill="white"/>
</g>
<defs>
<clipPath id="clip0_29_42">
<rect width="32" height="32" fill="white"/>
</clipPath>
</defs>
</svg>
