<svg width="127" height="34" viewBox="0 0 127 34" fill="none" xmlns="http://www.w3.org/2000/svg">
<path d="M112.704 26.2962L119.552 19.4478L126.401 26.2962L119.552 33.1446L112.704 26.2962Z" fill="#8A38F5"/>
<path d="M13.2051 0.0449219C15.4131 0.074611 17.3843 0.452581 19.1182 1.17871C20.8519 1.90487 22.3039 2.9645 23.4746 4.35742C24.6454 5.73566 25.4901 7.42513 26.0088 9.42578L19.4736 10.5371C19.2365 9.4998 18.7993 8.62538 18.1621 7.91406C17.5248 7.2027 16.7613 6.66152 15.8721 6.29102C14.9978 5.92058 14.0784 5.72104 13.1152 5.69141C12.1669 5.66182 11.2704 5.79544 10.4258 6.0918C9.59606 6.37334 8.91431 6.78775 8.38086 7.33594C7.86226 7.88417 7.60264 8.53637 7.60254 9.29199C7.60254 9.98841 7.81744 10.5593 8.24707 11.0039C8.67685 11.4337 9.21804 11.7821 9.87012 12.0488C10.5222 12.3156 11.1894 12.538 11.8711 12.7158L17.4287 14.2275C18.2585 14.4498 19.177 14.7468 20.1846 15.1172C21.1923 15.4729 22.1564 15.9758 23.0752 16.6279C24.0088 17.2652 24.7715 18.1109 25.3643 19.1631C25.9718 20.2153 26.2764 21.5488 26.2764 23.1641C26.2764 24.8832 25.9127 26.3874 25.1865 27.6768C24.4752 28.9512 23.512 30.0108 22.2969 30.8555C21.0817 31.6853 19.7033 32.3077 18.1621 32.7227C16.6356 33.1376 15.057 33.3457 13.4268 33.3457C11.0556 33.3457 8.91371 32.9305 7.00195 32.1006C5.10514 31.2559 3.54151 30.055 2.31152 28.499C1.09645 26.9282 0.326038 25.061 0 22.8975L6.31348 21.9639C6.75809 23.8014 7.67638 25.2171 9.06934 26.21C10.4624 27.2029 12.0487 27.6992 13.8271 27.6992C14.82 27.6992 15.7832 27.5436 16.7168 27.2324C17.6505 26.9212 18.414 26.4611 19.0068 25.8535C19.6143 25.2459 19.918 24.4975 19.918 23.6084C19.9179 23.2824 19.8664 22.9711 19.7627 22.6748C19.6738 22.3636 19.5182 22.0744 19.2959 21.8076C19.0736 21.5409 18.7548 21.2889 18.3398 21.0518C17.9397 20.8147 17.428 20.5999 16.8057 20.4072L8.49219 17.9619C7.86977 17.7841 7.14337 17.5321 6.31348 17.2061C5.49837 16.88 4.70521 16.4133 3.93457 15.8057C3.16408 15.1981 2.51962 14.398 2.00098 13.4053C1.49709 12.3975 1.24512 11.13 1.24512 9.60352C1.24514 7.45473 1.78541 5.66877 2.86719 4.24609C3.94899 2.82344 5.39424 1.76393 7.20215 1.06738C9.0102 0.370839 11.0117 0.0301011 13.2051 0.0449219ZM60.4189 8.00293C62.8345 8.00299 64.9536 8.54417 66.7764 9.62598C68.6139 10.7078 70.0438 12.2046 71.0664 14.1162C72.0889 16.0131 72.6005 18.1991 72.6006 20.6738C72.6006 23.1634 72.0822 25.3647 71.0449 27.2764C70.0223 29.1733 68.5916 30.6633 66.7539 31.7451C64.9312 32.812 62.8195 33.3456 60.4189 33.3457C58.0033 33.3457 55.8834 32.8045 54.0605 31.7227C52.2377 30.6408 50.8155 29.1508 49.793 27.2539C48.7853 25.3422 48.2812 23.1487 48.2812 20.6738C48.2813 18.1696 48.7997 15.9691 49.8369 14.0723C50.8743 12.1606 52.3042 10.6706 54.127 9.60352C55.9498 8.53647 58.0477 8.00293 60.4189 8.00293ZM38.6309 8.66992H45.5674V13.3379H38.6309V22.1416C38.6309 23.0752 38.6385 23.92 38.6533 24.6758C38.683 25.4167 38.8386 26.0095 39.1201 26.4541C39.6536 27.2988 40.506 27.7579 41.6768 27.832C42.8475 27.9061 44.1447 27.847 45.5674 27.6543V32.6787C43.9076 32.9899 42.2772 33.1235 40.6768 33.0791C39.091 33.0495 37.6679 32.7746 36.4082 32.2559C35.1634 31.7223 34.2146 30.8699 33.5625 29.6992C32.9699 28.6027 32.6586 27.4914 32.6289 26.3652C32.5993 25.2241 32.585 23.9346 32.585 22.4971V13.3379H28.4941V8.66992H32.585V2.00098H38.6309V8.66992ZM83.9805 32.6787H77.9336V0H83.9805V32.6787ZM109.54 9.42578L97.8027 27.4326H109.096V32.6787H88.4219V31.9229L100.204 13.916H89.7559V8.66992H109.54V9.42578ZM60.4189 13.6494C59.1 13.6494 58.0176 13.9463 57.1729 14.5391C56.3283 15.1318 55.6981 15.9539 55.2832 17.0059C54.8831 18.058 54.6836 19.2809 54.6836 20.6738C54.6836 22.8227 55.1646 24.535 56.1279 25.8096C57.1061 27.0693 58.5368 27.6992 60.4189 27.6992C62.3599 27.6991 63.8045 27.0469 64.7529 25.7432C65.7162 24.4242 66.1982 22.7338 66.1982 20.6738C66.1982 18.5401 65.7094 16.8359 64.7314 15.5615C63.7682 14.2871 62.3305 13.6495 60.4189 13.6494Z" fill="white"/>
</svg>
